<svg width="48" height="48" viewBox="0 0 48 48" fill="none" xmlns="http://www.w3.org/2000/svg">
<g clip-path="url(#clip0_146_43)">
<path d="M25.5 33H22.5C22.1022 33 21.7206 32.842 21.4393 32.5607C21.158 32.2794 21 31.8978 21 31.5V25.8075L15.4425 20.25C15.1608 19.97 15.0017 19.5897 15 19.1925V16.5C15 16.1022 15.158 15.7206 15.4393 15.4393C15.7206 15.158 16.1022 15 16.5 15H31.5C31.8978 15 32.2794 15.158 32.5607 15.4393C32.842 15.7206 33 16.1022 33 16.5V19.1925C32.9983 19.5897 32.8392 19.97 32.5575 20.25L27 25.8075V31.5C27 31.8978 26.842 32.2794 26.5607 32.5607C26.2794 32.842 25.8978 33 25.5 33ZM16.5 16.5V19.1925L22.5 25.1925V31.5H25.5V25.1925L31.5 19.1925V16.5H16.5Z" fill="white"/>
</g>
<circle cx="24" cy="24" r="22.75" stroke="#FF8C62" stroke-width="2.5"/>
<defs>
<clipPath id="clip0_146_43">
<rect width="24" height="24" fill="white" transform="translate(12 12)"/>
</clipPath>
</defs>
</svg>
