<svg width="83" height="30" viewBox="0 0 83 30" fill="none" xmlns="http://www.w3.org/2000/svg">
<g clip-path="url(#clip0_185_0)">
<path d="M44.051 12.1796C44.0299 11.6211 43.9308 11.1301 43.7539 10.706C43.5764 10.2824 43.3419 9.93054 43.0502 9.65137C42.7582 9.37203 42.4249 9.1656 42.0496 9.03085C41.6744 8.89663 41.2885 8.82925 40.8927 8.82925C40.0796 8.82925 39.3759 9.12378 38.7818 9.71321C38.1876 10.3026 37.8486 11.1248 37.7655 12.1796H44.051ZM37.6405 14.7232C37.703 15.8819 38.0417 16.8019 38.6568 17.4845C39.2715 18.1668 40.0796 18.508 41.0802 18.508C41.7471 18.508 42.3359 18.3582 42.847 18.0583C43.3576 17.7588 43.686 17.3399 43.8321 16.8019H48.0223C47.5426 18.3738 46.709 19.5838 45.5207 20.4314C44.3324 21.2797 42.9144 21.7034 41.2679 21.7034C36.1395 21.7034 33.5753 18.9321 33.5753 13.3896C33.5753 12.2107 33.7418 11.1457 34.0756 10.1942C34.4089 9.24299 34.8935 8.42587 35.5296 7.74332C36.1654 7.06078 36.9417 6.53873 37.8594 6.17663C38.7764 5.81508 39.8294 5.63385 41.0177 5.63385C43.3943 5.63385 45.1923 6.38913 46.4119 7.89845C47.6316 9.40831 48.2412 11.6833 48.2412 14.7232H37.6405Z" fill="#00070F"/>
<path d="M58.9981 13.8237C58.7895 14.0307 58.4872 14.196 58.0914 14.32C57.6952 14.4442 57.122 14.579 56.3714 14.7232C55.2037 14.9513 54.4015 15.2406 53.9637 15.5922C53.5259 15.9439 53.307 16.4504 53.307 17.1119C53.307 18.2498 53.9637 18.8181 55.277 18.8181C55.7978 18.8181 56.2825 18.7306 56.731 18.5547C57.1789 18.379 57.5646 18.1411 57.888 17.8412C58.211 17.5417 58.4713 17.1896 58.6699 16.7862C58.8677 16.383 58.9668 15.9541 58.9668 15.4989L58.9981 13.8237ZM59.2795 21.3001C59.1545 20.9074 59.0709 20.4522 59.0295 19.9351C58.5497 20.4731 57.9139 20.902 57.122 21.2225C56.3295 21.5428 55.4123 21.7034 54.3701 21.7034C52.5981 21.7034 51.3003 21.3156 50.477 20.5401C49.6531 19.7645 49.2418 18.7563 49.2418 17.5154C49.2418 16.4193 49.4187 15.5453 49.7735 14.8939C50.1276 14.2426 50.6177 13.7306 51.2432 13.3583C51.8685 12.986 52.6138 12.7122 53.4791 12.5364C54.3438 12.3607 55.2873 12.2004 56.3088 12.0552C57.3301 11.911 58.0181 11.7196 58.3728 11.4815C58.727 11.244 58.9043 10.8562 58.9043 10.3182C58.9043 9.82173 58.6699 9.43408 58.2007 9.15491C57.7318 8.87557 57.1009 8.73598 56.3088 8.73598C55.3707 8.73598 54.6984 8.94294 54.2919 9.35651C53.8857 9.77043 53.63 10.3182 53.5259 11.0008H49.7421C49.7626 10.2151 49.8931 9.49127 50.133 8.82928C50.3725 8.16746 50.7584 7.59894 51.29 7.123C51.8216 6.64742 52.5145 6.2805 53.3693 6.02171C54.224 5.76328 55.2662 5.63388 56.4965 5.63388C57.7053 5.63388 58.7324 5.76864 59.5766 6.03708C60.421 6.30624 61.0982 6.69389 61.6093 7.20039C62.1198 7.70743 62.4897 8.33814 62.7194 9.09271C62.9485 9.848 63.0633 10.701 63.0633 11.6522V21.3001H59.2795Z" fill="#00070F"/>
<path d="M73.2269 5.63419C72.8089 5.63419 72.4018 5.65563 72.0072 5.69674C71.6109 5.73785 71.22 5.83614 70.8344 5.98985C70.4471 6.14534 70.0724 6.36874 69.7085 6.65827C69.3427 6.9478 68.9932 7.34993 68.66 7.86823V6.03631H64.8461V21.2993H68.9104V13.3586C68.9104 10.8976 70.1516 9.66637 72.6324 9.66637C72.8377 9.66637 73.0413 9.67512 73.2467 9.69478V5.63419H73.2269Z" fill="#00070F"/>
<path d="M82.5139 1.95255V21.2994H78.448V9.7574H75.0284V5.49466C75.5671 5.46428 76.0393 5.40012 76.4463 5.30361C77.0518 5.15866 77.5472 4.93526 77.9325 4.63518C78.3181 4.33671 78.6099 3.96318 78.8083 3.51816C79.0063 3.07475 79.136 2.55288 79.1992 1.95255H82.5139Z" fill="#00070F"/>
<mask id="mask0_185_0" style="mask-type:alpha" maskUnits="userSpaceOnUse" x="0" y="0" width="26" height="30">
<path d="M11.8002 0.208379C11.3994 0.232864 11.0007 0.293094 10.611 0.391213C10.2552 0.480754 9.90283 0.585128 9.5481 0.679673C6.24424 1.52932 3.72117 3.42147 1.92953 6.30553C0.311193 8.90989 -0.23846 11.7325 0.0919446 14.7431C0.378932 17.3576 1.56435 19.5754 3.25078 21.551C4.75057 23.308 6.51807 24.7625 8.456 26.0255C10.4662 27.3356 12.6068 28.3605 14.9023 29.0704C15.4691 29.2456 16.0513 29.3517 16.6329 29.4617C16.7572 29.4851 16.8925 29.5076 16.9782 29.3816C17.0487 29.2783 17.0209 29.1716 16.9741 29.0733C16.9238 28.968 16.8532 28.8735 16.7781 28.7836C16.3926 28.3226 16.111 27.8027 15.8739 27.2555C15.5946 26.6105 15.6948 25.8992 16.6159 25.6618C19.0183 25.0425 21.0088 23.7282 22.6371 21.8904C24.9802 19.2455 26.0752 16.1339 25.8896 12.6268C25.6929 8.9106 24.172 5.77972 21.3335 3.33175C18.8553 1.19475 15.9753 0.178711 12.763 0.178711C12.4452 0.178711 12.1245 0.188719 11.8002 0.208379Z" fill="white"/>
</mask>
<g mask="url(#mask0_185_0)">
<path d="M26.8103 -0.714905L26.8098 12.415L23.0987 12.3872L23.0609 12.3871C22.1834 12.3871 21.3219 12.6226 20.5674 13.0694L19.6617 13.6061L18.7179 12.5513C18.6419 12.4668 18.5569 12.3899 18.4644 12.3227C18.1151 12.0684 17.6871 11.9646 17.2592 12.03C16.8311 12.0954 16.4543 12.3222 16.1981 12.6687L15.6061 13.4694L14.8073 10.5759C14.6671 10.0674 14.2585 9.67779 13.74 9.5593C13.365 9.47422 12.9787 9.53821 12.6523 9.74106C12.3258 9.94373 12.0988 10.2604 12.0125 10.6325L11.2921 13.7409L10.8486 11.7667C10.7208 11.1996 10.2931 10.7435 9.73268 10.5768C9.31742 10.4529 8.8791 10.4969 8.49789 10.7006C8.11651 10.9042 7.83781 11.2427 7.71314 11.6543L7.18456 13.3999L6.8338 12.3474C6.61347 11.6874 5.995 11.2441 5.29438 11.2441H4.3237C3.82629 11.2441 3.42293 11.6441 3.42293 12.1377C3.42293 12.6314 3.82629 13.0314 4.3237 13.0314H5.16413L6.19137 16.1129C6.37873 16.6736 6.99144 16.9795 7.55749 16.7937C7.89167 16.6839 8.15164 16.4183 8.2527 16.0841L9.24013 12.8235L10.2261 17.2112C10.289 17.4907 10.4576 17.7293 10.7016 17.883C10.8768 17.9936 11.0761 18.0504 11.2791 18.0504C11.358 18.0504 11.4378 18.0419 11.5168 18.0244C11.9199 17.935 12.241 17.6192 12.3347 17.2181L13.4477 12.4167L14.0658 14.6551C14.1672 15.0234 14.4075 15.3305 14.7419 15.5197C15.0763 15.7086 15.4649 15.7571 15.8361 15.6566C16.1485 15.5719 16.4262 15.3823 16.6178 15.1231L17.519 13.9041L18.3145 14.7929C18.8887 15.4336 19.8432 15.5798 20.5852 15.1405L21.4909 14.6039C21.9726 14.3185 22.5147 14.1705 23.0849 14.1745L26.8098 14.2022L26.8103 30.3735H-0.900757V-0.714905H26.8103Z" fill="#D2D9D6"/>
</g>
</g>
<defs>
<clipPath id="clip0_185_0">
<rect width="83" height="30" fill="white"/>
</clipPath>
</defs>
</svg>
